<?xml version="1.0" encoding="UTF-8" standalone="no"?>
<svg
   xmlns:dc="http://purl.org/dc/elements/1.1/"
   xmlns:cc="http://creativecommons.org/ns#"
   xmlns:rdf="http://www.w3.org/1999/02/22-rdf-syntax-ns#"
   xmlns:svg="http://www.w3.org/2000/svg"
   xmlns="http://www.w3.org/2000/svg"
   xmlns:sodipodi="http://sodipodi.sourceforge.net/DTD/sodipodi-0.dtd"
   xmlns:inkscape="http://www.inkscape.org/namespaces/inkscape"
   width="100"
   height="100"
   viewBox="0 0 26.458333 26.458333"
   version="1.1"
   id="svg8"
   inkscape:version="1.0.1 (3bc2e813f5, 2020-09-07)"
   sodipodi:docname="connection.svg">
  <defs
     id="defs2">
    <style
       id="style899">.cls-1,.cls-2{fill:none;stroke:#0832ff;stroke-linecap:round;stroke-linejoin:round;}.cls-1{stroke-width:2px;}.cls-3{fill:#0832ff;}</style>
  </defs>
  <sodipodi:namedview
     id="base"
     pagecolor="#ffffff"
     bordercolor="#666666"
     borderopacity="1.0"
     inkscape:pageopacity="0.0"
     inkscape:pageshadow="2"
     inkscape:zoom="1.979899"
     inkscape:cx="26.469683"
     inkscape:cy="39.412909"
     inkscape:document-units="mm"
     inkscape:current-layer="layer1"
     inkscape:document-rotation="0"
     showgrid="false"
     units="px"
     inkscape:window-width="1920"
     inkscape:window-height="1017"
     inkscape:window-x="1072"
     inkscape:window-y="554"
     inkscape:window-maximized="1" />
  <metadata
     id="metadata5">
    <rdf:RDF>
      <cc:Work
         rdf:about="">
        <dc:format>image/svg+xml</dc:format>
        <dc:type
           rdf:resource="http://purl.org/dc/dcmitype/StillImage" />
        <dc:title />
      </cc:Work>
    </rdf:RDF>
  </metadata>
  <g
     inkscape:label="Layer 1"
     inkscape:groupmode="layer"
     id="layer1">
    <g
       id="g972"
       style="opacity:1"
       transform="translate(-3.2533333e-4,-3.2533333e-4)">
      <path
         style="color:#000000;font-style:normal;font-variant:normal;font-weight:normal;font-stretch:normal;font-size:medium;line-height:normal;font-family:sans-serif;font-variant-ligatures:normal;font-variant-position:normal;font-variant-caps:normal;font-variant-numeric:normal;font-variant-alternates:normal;font-variant-east-asian:normal;font-feature-settings:normal;font-variation-settings:normal;text-indent:0;text-align:start;text-decoration:none;text-decoration-line:none;text-decoration-style:solid;text-decoration-color:#000000;letter-spacing:normal;word-spacing:normal;text-transform:none;writing-mode:lr-tb;direction:ltr;text-orientation:mixed;dominant-baseline:auto;baseline-shift:baseline;text-anchor:start;white-space:normal;shape-padding:0;shape-margin:0;inline-size:0;clip-rule:nonzero;display:inline;overflow:visible;visibility:visible;isolation:auto;mix-blend-mode:normal;color-interpolation:sRGB;color-interpolation-filters:linearRGB;solid-color:#000000;solid-opacity:1;vector-effect:none;fill:#2e85c7;fill-opacity:1;fill-rule:nonzero;stroke:none;stroke-width:1.04406;stroke-linecap:round;stroke-linejoin:round;stroke-miterlimit:4;stroke-dasharray:none;stroke-dashoffset:0;stroke-opacity:1;paint-order:stroke markers fill;color-rendering:auto;image-rendering:auto;shape-rendering:auto;text-rendering:auto;enable-background:accumulate;stop-color:#000000;stop-opacity:1"
         d="M 13.228516,0 C 5.9284337,0 5.7448675e-7,5.9284322 0,13.228516 c 0,7.300083 5.9284333,13.230468 13.228516,13.230468 7.300082,0 13.230468,-5.930385 13.230468,-13.230468 C 26.458984,5.9284322 20.528598,0 13.228516,0 Z m 0,1.0449219 c 6.73583,0 12.185546,5.447762 12.185546,12.1835941 0,6.735832 -5.449716,12.185547 -12.185546,12.185546 -6.7358307,0 -12.1835941,-5.449714 -12.1835941,-12.185546 5e-7,-6.7358321 5.4477638,-12.1835941 12.1835941,-12.1835941 z"
         id="path974" />
    </g>
    <g
       id="g968"
       transform="matrix(0.55857981,0,0,0.55857981,4.0252947,4.1589297)"
       style="fill:#2e85c7;fill-opacity:1">
      <g
         id="Layer_2"
         style="fill:#2e85c7;fill-opacity:1" />
      <g
         id="Layer_3"
         style="fill:#2e85c7;fill-opacity:1" />
      <g
         id="Layer_4"
         style="fill:#2e85c7;fill-opacity:1" />
      <g
         id="Layer_5"
         style="fill:#2e85c7;fill-opacity:1" />
      <g
         id="Layer_6"
         style="fill:#2e85c7;fill-opacity:1" />
      <g
         id="Layer_7"
         style="fill:#2e85c7;fill-opacity:1" />
      <g
         id="Layer_8"
         style="fill:#2e85c7;fill-opacity:1" />
      <g
         id="Layer_9"
         style="fill:#2e85c7;fill-opacity:1" />
      <g
         id="Layer_10"
         style="fill:#2e85c7;fill-opacity:1" />
      <g
         id="Layer_11"
         style="fill:#2e85c7;fill-opacity:1" />
      <g
         id="Layer_12"
         style="fill:#2e85c7;fill-opacity:1" />
      <g
         id="Layer_13"
         style="fill:#2e85c7;fill-opacity:1" />
      <g
         id="Layer_14"
         style="fill:#2e85c7;fill-opacity:1" />
      <g
         id="Layer_15"
         style="fill:#2e85c7;fill-opacity:1" />
      <g
         id="Layer_16"
         style="fill:#2e85c7;fill-opacity:1" />
      <g
         id="Layer_17"
         style="fill:#2e85c7;fill-opacity:1" />
      <g
         id="Layer_18"
         style="fill:#2e85c7;fill-opacity:1" />
      <g
         id="Layer_19"
         style="fill:#2e85c7;fill-opacity:1" />
      <g
         id="Layer_20"
         style="fill:#2e85c7;fill-opacity:1" />
      <g
         id="Layer_21"
         style="fill:#2e85c7;fill-opacity:1" />
      <g
         id="Layer_22"
         style="fill:#2e85c7;fill-opacity:1" />
      <g
         id="Layer_23"
         style="fill:#2e85c7;fill-opacity:1" />
      <g
         id="Layer_24"
         style="fill:#2e85c7;fill-opacity:1">
        <g
           id="g868"
           style="fill:#2e85c7;fill-opacity:1">
          <path
             d="m 17.7998,13.75 c -0.2813,0 -0.5615,-0.1187 -0.7588,-0.3491 -0.3599,-0.4194 -0.3115,-1.0508 0.1084,-1.4102 l 8.6904,-7.4502 c 0.4189,-0.3579 1.0508,-0.3101 1.4092,0.1084 0.3604,0.4194 0.3115,1.0508 -0.1084,1.4102 l -8.6904,7.4502 C 18.2617,13.6709 18.0303,13.75 17.7998,13.75 Z"
             fill="#00acba"
             id="path866"
             style="fill:#2e85c7;fill-opacity:1" />
        </g>
        <g
           id="g872"
           style="fill:#2e85c7;fill-opacity:1">
          <path
             d="m 26.4902,27.7002 c -0.2305,0 -0.4619,-0.0791 -0.6504,-0.2407 l -8.6904,-7.4502 c -0.4199,-0.3594 -0.4683,-0.9907 -0.1084,-1.4102 0.3594,-0.4194 0.9912,-0.4668 1.4092,-0.1084 l 8.6904,7.4502 c 0.4199,0.3594 0.4688,0.9907 0.1084,1.4102 -0.1972,0.2304 -0.4775,0.3491 -0.7588,0.3491 z"
             fill="#00acba"
             id="path870"
             style="fill:#2e85c7;fill-opacity:1" />
        </g>
        <g
           id="g876"
           style="fill:#2e85c7;fill-opacity:1">
          <path
             d="m 7.1201,23.8799 c -0.2559,0 -0.5117,-0.0977 -0.707,-0.293 -0.3906,-0.3906 -0.3906,-1.0234 0,-1.4141 L 9.7529,18.833 c 0.3906,-0.3906 1.0234,-0.3906 1.4141,0 0.3907,0.3906 0.3906,1.0234 0,1.4141 l -3.3398,3.3398 c -0.1954,0.1953 -0.4512,0.293 -0.7071,0.293 z"
             fill="#00acba"
             id="path874"
             style="fill:#2e85c7;fill-opacity:1" />
        </g>
        <g
           id="g880"
           style="fill:#2e85c7;fill-opacity:1">
          <path
             d="m 10.46,13.46 c -0.2559,0 -0.5117,-0.0977 -0.707,-0.293 L 6.4131,9.8271 c -0.3906,-0.3906 -0.3906,-1.0234 0,-1.4141 0.3906,-0.3907 1.0234,-0.3906 1.4141,0 l 3.3398,3.3398 c 0.3906,0.3906 0.3906,1.0234 0,1.4141 -0.1953,0.1954 -0.4512,0.2931 -0.707,0.2931 z"
             fill="#00acba"
             id="path878"
             style="fill:#2e85c7;fill-opacity:1" />
        </g>
        <g
           id="g884"
           style="fill:#2e85c7;fill-opacity:1">
          <path
             d="m 24,17 h -5 c -0.5527,0 -1,-0.4478 -1,-1 0,-0.5522 0.4473,-1 1,-1 h 5 c 0.5527,0 1,0.4478 1,1 0,0.5522 -0.4473,1 -1,1 z"
             fill="#00acba"
             id="path882"
             style="fill:#2e85c7;fill-opacity:1" />
        </g>
        <g
           id="g888"
           style="fill:#2e85c7;fill-opacity:1">
          <path
             d="M 14,22 C 12.4043,22 10.8975,21.3789 9.7568,20.251 8.6211,19.1025 8,17.5957 8,16 8,14.4043 8.6211,12.8975 9.749,11.7568 10.8975,10.6211 12.4043,10 14,10 c 1.75,0 3.4111,0.7646 4.5576,2.0981 C 19.4873,13.1763 20,14.5625 20,16 20,17.4375 19.4873,18.8237 18.5576,19.9028 17.4111,21.2354 15.75,22 14,22 Z m 0,-10 c -1.0654,0 -2.0732,0.416 -2.8369,1.1709 C 10.416,13.9268 10,14.9346 10,16 c 0,1.0654 0.416,2.0732 1.1709,2.8369 C 11.9268,19.584 12.9346,20 14,20 15.167,20 16.2754,19.4888 17.042,18.5981 17.6602,17.8809 18,16.9585 18,16 18,15.0415 17.6602,14.1191 17.042,13.4028 16.2754,12.5112 15.167,12 14,12 Z"
             fill="#0181b0"
             id="path886"
             style="fill:#2e85c7;fill-opacity:1" />
        </g>
        <g
           id="g892"
           style="fill:#2e85c7;fill-opacity:1">
          <path
             d="M 5,11 C 2.7944,11 1,9.2056 1,7 1,4.7944 2.7944,3 5,3 7.2056,3 9,4.7944 9,7 9,9.2056 7.2056,11 5,11 Z M 5,5 C 3.897,5 3,5.897 3,7 3,8.103 3.897,9 5,9 6.103,9 7,8.103 7,7 7,5.897 6.103,5 5,5 Z"
             fill="#f5d803"
             id="path890"
             style="fill:#2e85c7;fill-opacity:1" />
        </g>
        <g
           id="g896"
           style="fill:#2e85c7;fill-opacity:1">
          <path
             d="m 28,7 c -1.6543,0 -3,-1.3457 -3,-3 0,-1.6543 1.3457,-3 3,-3 1.6543,0 3,1.3457 3,3 0,1.6543 -1.3457,3 -3,3 z m 0,-4 c -0.5518,0 -1,0.4487 -1,1 0,0.5513 0.4482,1 1,1 0.5518,0 1,-0.4487 1,-1 0,-0.5513 -0.4482,-1 -1,-1 z"
             fill="#f5d803"
             id="path894"
             style="fill:#2e85c7;fill-opacity:1" />
        </g>
        <g
           id="g900"
           style="fill:#2e85c7;fill-opacity:1">
          <path
             d="m 26,19 c -1.6543,0 -3,-1.3457 -3,-3 0,-1.6543 1.3457,-3 3,-3 1.6543,0 3,1.3457 3,3 0,1.6543 -1.3457,3 -3,3 z m 0,-4 c -0.5518,0 -1,0.4487 -1,1 0,0.5513 0.4482,1 1,1 0.5518,0 1,-0.4487 1,-1 0,-0.5513 -0.4482,-1 -1,-1 z"
             fill="#f5d803"
             id="path898"
             style="fill:#2e85c7;fill-opacity:1" />
        </g>
        <g
           id="g904"
           style="fill:#2e85c7;fill-opacity:1">
          <path
             d="m 28,31 c -1.6543,0 -3,-1.3457 -3,-3 0,-1.6543 1.3457,-3 3,-3 1.6543,0 3,1.3457 3,3 0,1.6543 -1.3457,3 -3,3 z m 0,-4 c -0.5518,0 -1,0.4487 -1,1 0,0.5513 0.4482,1 1,1 0.5518,0 1,-0.4487 1,-1 0,-0.5513 -0.4482,-1 -1,-1 z"
             fill="#f5d803"
             id="path902"
             style="fill:#2e85c7;fill-opacity:1" />
        </g>
        <g
           id="g908"
           style="fill:#2e85c7;fill-opacity:1">
          <path
             d="m 5,29 c -2.2056,0 -4,-1.7944 -4,-4 0,-2.2056 1.7944,-4 4,-4 2.2056,0 4,1.7944 4,4 0,2.2056 -1.7944,4 -4,4 z m 0,-6 c -1.103,0 -2,0.897 -2,2 0,1.103 0.897,2 2,2 1.103,0 2,-0.897 2,-2 0,-1.103 -0.897,-2 -2,-2 z"
             fill="#f5d803"
             id="path906"
             style="fill:#2e85c7;fill-opacity:1" />
        </g>
      </g>
      <g
         id="Layer_25"
         style="fill:#2e85c7;fill-opacity:1" />
      <g
         id="Layer_26"
         style="fill:#2e85c7;fill-opacity:1" />
    </g>
  </g>
</svg>
