<?xml version="1.0" encoding="UTF-8" standalone="no"?>
<svg
   xmlns:dc="http://purl.org/dc/elements/1.1/"
   xmlns:cc="http://creativecommons.org/ns#"
   xmlns:rdf="http://www.w3.org/1999/02/22-rdf-syntax-ns#"
   xmlns:svg="http://www.w3.org/2000/svg"
   xmlns="http://www.w3.org/2000/svg"
   xmlns:sodipodi="http://sodipodi.sourceforge.net/DTD/sodipodi-0.dtd"
   xmlns:inkscape="http://www.inkscape.org/namespaces/inkscape"
   width="160mm"
   height="90mm"
   viewBox="0 0 160 90"
   version="1.1"
   id="svg869"
   inkscape:version="1.0.1 (3bc2e813f5, 2020-09-07)"
   sodipodi:docname="logo.svg">
  <defs
     id="defs863" />
  <sodipodi:namedview
     id="base"
     pagecolor="#ffffff"
     bordercolor="#666666"
     borderopacity="1.0"
     inkscape:pageopacity="0.0"
     inkscape:pageshadow="2"
     inkscape:zoom="0.7"
     inkscape:cx="-188.08506"
     inkscape:cy="126.57362"
     inkscape:document-units="mm"
     inkscape:current-layer="layer1"
     inkscape:document-rotation="0"
     showgrid="false"
     inkscape:window-width="1920"
     inkscape:window-height="1017"
     inkscape:window-x="-8"
     inkscape:window-y="-8"
     inkscape:window-maximized="1" />
  <metadata
     id="metadata866">
    <rdf:RDF>
      <cc:Work
         rdf:about="">
        <dc:format>image/svg+xml</dc:format>
        <dc:type
           rdf:resource="http://purl.org/dc/dcmitype/StillImage" />
        <dc:title></dc:title>
      </cc:Work>
    </rdf:RDF>
  </metadata>
  <g
     inkscape:label="Layer 1"
     inkscape:groupmode="layer"
     id="layer1">
    <path
       id="path847"
       style="fill:#2e85c7;fill-opacity:1;stroke:none;stroke-width:0.264583px;stroke-linecap:butt;stroke-linejoin:miter;stroke-opacity:1"
       d="m 127.82884,4.5247899 c 0,0 -7.24562,0.158855 -14.49111,0.135909 -0.75474,-0.0024 -1.5322,-0.0028 -2.32854,-5.16e-4 -11.945431,0.03497 -28.148241,0.223094 -36.924371,2.903182 C 58.034669,12.46482 49.203398,19.338813 41.937424,27.462927 c -1.314347,1.49028 -3.027897,3.7511 -4.969206,6.64766 1.038524,2.28042 1.559079,4.95644 1.559079,8.03103 0,3.41064 -0.618797,6.27829 -1.856735,8.60257 -1.237935,2.3243 -2.817111,4.15577 -4.737177,5.49476 -1.894802,1.31373 -3.827501,2.18534 -5.798097,2.61483 -0.786275,0.15577 -1.68883,0.2858 -2.682004,0.39584 -3.421547,7.91851 -6.542416,16.78369 -8.69456,26.1059 l 104.058766,0.078 c 1.0175,-8.98817 1.87106,-16.64822 2.66135,-23.78718 -1.27498,-3.10646 -1.91359,-6.70688 -1.91359,-10.80347 0,-6.93746 1.64381,-12.44853 4.9289,-16.53543 0.99295,-8.99712 2.02609,-18.301427 3.33469,-29.7826771 z M 41.779812,31.090097 h 16.097207 c 4.04799,0 6.98493,0.34451 8.81083,1.03353 1.84313,0.67179 3.31591,1.87757 4.41834,3.61735 1.10243,1.73977 1.65364,3.72932 1.65364,5.96862 0,2.84221 -0.83543,5.19349 -2.5063,7.05384 -1.67088,1.84312 -4.16857,3.00585 -7.49308,3.48816 1.65364,0.96461 3.01445,2.02399 4.08243,3.1781 1.08521,1.1541 2.54076,3.20394 4.36666,6.14949 l 4.62505,7.38973 h -9.14674 l -5.52937,-8.24239 c -1.96371,-2.94554 -3.3073,-4.79729 -4.03077,-5.55521 -0.72347,-0.77515 -1.49,-1.30053 -2.299597,-1.57614 -0.809599,-0.29283 -2.092894,-0.43925 -3.849894,-0.43925 h -1.550294 v 15.81299 h -7.648112 z m 43.668137,0 h 13.97848 c 3.152261,0 5.555211,0.24115 7.208861,0.72347 2.22209,0.65457 4.1255,1.81729 5.71025,3.48816 1.58474,1.67086 2.79052,3.7207 3.61734,6.14949 0.82683,2.41157 1.24024,5.39158 1.24024,8.94003 0,3.11781 -0.38757,5.80498 -1.16272,8.06152 -0.94739,2.75607 -2.2996,4.98678 -4.0566,6.69209 -1.32636,1.29192 -3.11781,2.29961 -5.37435,3.02308 -1.68809,0.53399 -3.94463,0.80098 -6.769611,0.80098 h -14.39189 z m -36.020025,6.40788 v 9.61181 h 5.658569 c 3.669026,0 5.960016,-0.15503 6.872966,-0.46509 0.91295,-0.31006 1.62781,-0.84404 2.14457,-1.60197 0.51677,-0.75792 0.77515,-1.70532 0.77515,-2.8422 0,-1.27469 -0.34451,-2.2996 -1.03353,-3.07475 -0.6718,-0.79237 -1.62781,-1.29191 -2.86804,-1.49861 -0.62012,-0.0861 -2.48047,-0.12919 -5.581058,-0.12919 z m 43.668135,0 v 25.0889 h 5.71025 c 2.135961,0 3.677641,-0.12057 4.625041,-0.36173 1.24023,-0.31006 2.26515,-0.83543 3.07475,-1.57613 0.82682,-0.7407 1.49863,-1.95509 2.01538,-3.64319 0.51677,-1.70532 0.77516,-4.02215 0.77516,-6.95048 0,-2.92833 -0.25839,-5.17625 -0.77516,-6.74378 -0.51675,-1.56751 -1.24023,-2.79052 -2.17041,-3.66902 -0.93018,-0.8785 -2.11012,-1.47278 -3.53984,-1.78284 -1.06798,-0.24116 -3.160871,-0.36173 -6.278681,-0.36173 z m -20.24114,12.22767 h 9.62164 v 4.81108 h -9.62164 z" />
    <g
       aria-label="PR DC"
       id="text865"
       style="font-style:normal;font-variant:normal;font-weight:normal;font-stretch:normal;font-size:52.9167px;line-height:1.25;font-family:arial;-inkscape-font-specification:arial;letter-spacing:0px;word-spacing:0px;fill:#2e85c7;fill-opacity:1;stroke:none;stroke-width:0.264583"
       transform="translate(-26.307505,-2.9264341)">
      <path
         d="M 30.06917,71.8955 V 34.016653 h 12.27316 q 6.976323,0 9.095058,0.568441 3.255617,0.852661 5.451866,3.720705 2.19625,2.842205 2.19625,7.363896 0,3.488161 -1.266073,5.865279 -1.266074,2.377117 -3.229779,3.746543 -1.937868,1.343588 -3.95325,1.782838 -2.738852,0.542603 -7.932337,0.542603 H 37.717287 V 71.8955 Z m 7.648117,-31.470966 v 10.748704 h 4.185793 q 4.521691,0 6.046146,-0.594279 1.524456,-0.594279 2.377118,-1.860353 0.8785,-1.266073 0.8785,-2.945558 0,-2.067059 -1.214397,-3.410647 -1.214397,-1.343588 -3.07475,-1.679485 -1.369426,-0.258382 -5.503543,-0.258382 z"
         style="font-style:normal;font-variant:normal;font-weight:bold;font-stretch:normal;font-size:52.9167px;font-family:arial;-inkscape-font-specification:'arial Bold';stroke:none;stroke-width:0.264583;fill:#2e85c7;fill-opacity:1"
         id="path902" />
      <path
         d="m 176.90408,57.968693 7.41557,2.351279 q -1.70532,6.201176 -5.68441,9.224249 -3.95325,2.997235 -10.05107,2.997235 -7.54477,0 -12.40235,-5.141808 -4.85759,-5.167646 -4.85759,-14.107675 0,-9.456792 4.88342,-14.676115 4.88343,-5.245161 12.8416,-5.245161 6.95049,0 11.29131,4.108279 2.58383,2.428793 3.87574,6.976322 l -7.5706,1.808676 q -0.6718,-2.945558 -2.81637,-4.650881 -2.11874,-1.705324 -5.16765,-1.705324 -4.21163,0 -6.84713,3.023073 -2.60966,3.023074 -2.60966,9.79269 0,7.183029 2.58382,10.23194 2.58383,3.048911 6.71794,3.048911 3.04891,0 5.24516,-1.937867 2.19625,-1.937867 3.15227,-6.097823 z"
         style="font-style:normal;font-variant:normal;font-weight:bold;font-stretch:normal;font-size:52.9167px;font-family:arial;-inkscape-font-specification:'arial Bold';stroke:none;stroke-width:0.264583;fill:#2e85c7;fill-opacity:1"
         id="path908" />
    </g>
  </g>
</svg>
