<?xml version="1.0" encoding="UTF-8" standalone="no"?>
<svg
   xmlns:dc="http://purl.org/dc/elements/1.1/"
   xmlns:cc="http://creativecommons.org/ns#"
   xmlns:rdf="http://www.w3.org/1999/02/22-rdf-syntax-ns#"
   xmlns:svg="http://www.w3.org/2000/svg"
   xmlns="http://www.w3.org/2000/svg"
   xmlns:sodipodi="http://sodipodi.sourceforge.net/DTD/sodipodi-0.dtd"
   xmlns:inkscape="http://www.inkscape.org/namespaces/inkscape"
   data-name="Layer 3"
   id="Layer_3"
   viewBox="0 0 32 32"
   version="1.1"
   sodipodi:docname="settings.svg"
   inkscape:version="1.0.2-2 (e86c870879, 2021-01-15)">
  <metadata
     id="metadata31">
    <rdf:RDF>
      <cc:Work
         rdf:about="">
        <dc:format>image/svg+xml</dc:format>
        <dc:type
           rdf:resource="http://purl.org/dc/dcmitype/StillImage" />
      </cc:Work>
    </rdf:RDF>
  </metadata>
  <sodipodi:namedview
     pagecolor="#ffffff"
     bordercolor="#666666"
     borderopacity="1"
     objecttolerance="10"
     gridtolerance="10"
     guidetolerance="10"
     inkscape:pageopacity="0"
     inkscape:pageshadow="2"
     inkscape:window-width="1920"
     inkscape:window-height="1017"
     id="namedview29"
     showgrid="false"
     inkscape:zoom="9.5901357"
     inkscape:cx="32.702445"
     inkscape:cy="12.789653"
     inkscape:window-x="1072"
     inkscape:window-y="593"
     inkscape:window-maximized="1"
     inkscape:current-layer="Layer_3"
     inkscape:document-rotation="0" />
  <defs
     id="defs4">
    <style
       id="style2">.cls-1,.cls-2{fill:none;stroke:#0832ff;stroke-linecap:round;stroke-linejoin:round;}.cls-1{stroke-width:2px;}.cls-3{fill:#0832ff;}</style>
  </defs>
  <title
     id="title6" />
  <line
     class="cls-1"
     x1="14.574181"
     x2="30.258194"
     y1="6.0362968"
     y2="6.0362968"
     id="line8"
     style="stroke:#000000;stroke-opacity:1" />
  <line
     class="cls-1"
     x1="1.7418063"
     x2="6.0192642"
     y1="6.0362968"
     y2="6.0362968"
     id="line10"
     style="stroke:#000000;stroke-opacity:1" />
  <line
     class="cls-1"
     x1="25.980736"
     x2="30.258194"
     y1="16.017033"
     y2="16.017033"
     id="line12"
     style="stroke:#000000;stroke-opacity:1" />
  <line
     class="cls-1"
     x1="1.7418063"
     x2="17.425819"
     y1="16.017033"
     y2="16.017033"
     id="line14"
     style="stroke:#000000;stroke-opacity:1" />
  <line
     class="cls-1"
     x1="17.425819"
     x2="30.258194"
     y1="25.997768"
     y2="25.997768"
     id="line16"
     style="stroke:#000000;stroke-opacity:1" />
  <line
     class="cls-1"
     x1="1.7418063"
     x2="8.870903"
     y1="25.997768"
     y2="25.997768"
     id="line18"
     style="stroke:#000000;stroke-opacity:1" />
  <path
     class="cls-2"
     d="m 13.861271,5.9222314 a 3.7071304,3.7071304 0 0 1 -3.564548,3.678614 3.7071304,3.7071304 0 0 1 -3.5645489,-3.678614 3.5645485,3.5645485 0 0 1 7.1290969,0 z"
     id="path20"
     style="stroke:#000000;stroke-width:1.42582;stroke-opacity:1" />
  <path
     class="cls-2"
     d="m 25.267826,15.902967 a 3.5645485,3.5645485 0 1 1 -7.129097,0 3.5645485,3.5645485 0 0 1 7.129097,0 z"
     id="path22"
     style="stroke:#000000;stroke-width:1.42582;stroke-opacity:1" />
  <path
     class="cls-3"
     d="m 23.129097,16.017033 a 1.4258195,1.4258195 0 1 1 -2.851639,0 1.4258195,1.4258195 0 0 1 2.851639,0 z"
     id="path24"
     style="fill:#000012;fill-opacity:1;stroke-width:1.42582" />
  <path
     class="cls-2"
     d="m 16.71291,25.883703 a 3.7071304,3.7071304 0 0 1 -3.564549,3.678614 3.7071304,3.7071304 0 0 1 -3.5645482,-3.678614 3.5645486,3.5645486 0 0 1 7.1290972,0 z"
     id="path26"
     style="stroke:#000000;stroke-width:1.42582;stroke-opacity:1" />
</svg>
